<svg width="714" height="521" viewBox="0 0 714 521" fill="none" xmlns="http://www.w3.org/2000/svg">
  <rect x="95" y="206" width="504" height="8" rx="4" fill="#C9BFB9"/>
  <rect x="164" y="214" width="12" height="190" rx="6" fill="#D8CFC9"/>
  <rect x="524" y="214" width="12" height="190" rx="6" fill="#D8CFC9"/>
  <path d="M183 183c0-28 23-51 51-51h246c28 0 51 23 51 51v22H183v-22Z" fill="#E6D5C8"/>
  <circle cx="176" cy="150" r="25" fill="#2D3033"/>
  <path d="M147 198c8-27 47-27 57 0l21 70h-99l21-70Z" fill="#F59A71"/>
  <path d="M133 270h88l-14 110h-27l-9-63-23 63h-29l14-110Z" fill="#2D3033"/>
  <circle cx="280" cy="121" r="27" fill="#2D3033"/>
  <path d="M250 168c9-35 58-35 68 0l18 76h-104l18-76Z" fill="#FFFFFF" stroke="#2D3033" stroke-width="3"/>
  <path d="M246 245h89l17 111h-31l-24-70-17 70h-31l-3-111Z" fill="#2D3033"/>
  <circle cx="385" cy="105" r="29" fill="#2D3033"/>
  <path d="M353 158c10-39 62-39 73 0l20 94H332l21-94Z" fill="#F59A71"/>
  <path d="M336 254h107l-11 128h-32l-14-78-20 78h-32l2-128Z" fill="#F59A71"/>
  <circle cx="504" cy="150" r="25" fill="#2D3033"/>
  <path d="M474 199c7-29 49-29 58 0l22 72h-101l21-72Z" fill="#FFFFFF" stroke="#2D3033" stroke-width="3"/>
  <path d="M453 272h100l-7 96h-31l-12-58-20 58h-30v-96Z" fill="#2D3033"/>
  <rect x="260" y="181" width="84" height="51" rx="4" fill="#FFFFFF" stroke="#D99872" stroke-width="5"/>
  <rect x="408" y="180" width="82" height="52" rx="4" fill="#2D3033"/>
  <rect x="324" y="166" width="60" height="66" rx="4" fill="#FFFFFF" stroke="#2D3033" stroke-width="3"/>
  <path d="M84 410h548" stroke="#E9E0DA" stroke-width="4" stroke-linecap="round"/>
  <circle cx="130" cy="203" r="3" fill="#FFFFFF"/>
  <circle cx="151" cy="220" r="3" fill="#FFFFFF"/>
  <circle cx="179" cy="205" r="3" fill="#FFFFFF"/>
  <circle cx="198" cy="230" r="3" fill="#FFFFFF"/>
  <path d="M349 420c21-37 69-37 91 0H349Z" fill="#E6D5C8"/>
  <rect x="382" y="349" width="24" height="70" rx="12" fill="#D99872"/>
</svg>
